<svg width="18" height="18" viewBox="0 0 18 18" fill="none" xmlns="http://www.w3.org/2000/svg">
<path d="M9.00002 15.6667H3.16669C2.94567 15.6667 2.73371 15.5789 2.57743 15.4226C2.42115 15.2663 2.33335 15.0544 2.33335 14.8333V3.16667C2.33335 2.94566 2.42115 2.7337 2.57743 2.57742C2.73371 2.42114 2.94567 2.33334 3.16669 2.33334H7.33335V4.83334C7.33335 5.49638 7.59675 6.13227 8.06559 6.60111C8.53443 7.06995 9.17031 7.33334 9.83335 7.33334H12.3334V8.16667C12.3334 8.38769 12.4212 8.59965 12.5774 8.75593C12.7337 8.91221 12.9457 9.00001 13.1667 9.00001C13.3877 9.00001 13.5997 8.91221 13.7559 8.75593C13.9122 8.59965 14 8.38769 14 8.16667V6.50001C14 6.50001 14 6.50001 14 6.45001C13.9913 6.37345 13.9746 6.29803 13.95 6.22501V6.15001C13.91 6.06432 13.8565 5.98556 13.7917 5.91667L8.79169 0.916672C8.7228 0.851852 8.64404 0.798406 8.55835 0.758338C8.53348 0.754805 8.50823 0.754805 8.48335 0.758338C8.3987 0.709789 8.30521 0.678625 8.20835 0.666672H3.16669C2.50365 0.666672 1.86776 0.930064 1.39892 1.3989C0.930079 1.86775 0.666687 2.50363 0.666687 3.16667V14.8333C0.666687 15.4964 0.930079 16.1323 1.39892 16.6011C1.86776 17.0699 2.50365 17.3333 3.16669 17.3333H9.00002C9.22103 17.3333 9.433 17.2455 9.58928 17.0893C9.74556 16.933 9.83335 16.721 9.83335 16.5C9.83335 16.279 9.74556 16.067 9.58928 15.9107C9.433 15.7545 9.22103 15.6667 9.00002 15.6667ZM9.00002 3.50834L11.1584 5.66667H9.83335C9.61234 5.66667 9.40038 5.57887 9.2441 5.42259C9.08782 5.26631 9.00002 5.05435 9.00002 4.83334V3.50834ZM4.83335 5.66667C4.61234 5.66667 4.40038 5.75447 4.2441 5.91075C4.08782 6.06703 4.00002 6.27899 4.00002 6.50001C4.00002 6.72102 4.08782 6.93298 4.2441 7.08926C4.40038 7.24554 4.61234 7.33334 4.83335 7.33334H5.66669C5.8877 7.33334 6.09966 7.24554 6.25594 7.08926C6.41222 6.93298 6.50002 6.72102 6.50002 6.50001C6.50002 6.27899 6.41222 6.06703 6.25594 5.91075C6.09966 5.75447 5.8877 5.66667 5.66669 5.66667H4.83335ZM17.0917 15.9083L16.1167 14.9417C16.4283 14.3977 16.5531 13.7666 16.4718 13.145C16.3905 12.5234 16.1077 11.9456 15.6667 11.5C15.2609 11.0797 14.7379 10.7914 14.1659 10.6726C13.5939 10.5538 12.9993 10.6101 12.4597 10.834C11.9201 11.0579 11.4605 11.4392 11.1407 11.9281C10.8208 12.417 10.6557 12.9909 10.6667 13.575C10.6638 14.0777 10.7924 14.5723 11.0397 15.01C11.287 15.4476 11.6444 15.813 12.0765 16.0698C12.5085 16.3267 13.0003 16.4662 13.5028 16.4744C14.0054 16.4826 14.5015 16.3593 14.9417 16.1167L15.9084 17.0917C15.9858 17.1698 16.078 17.2318 16.1795 17.2741C16.2811 17.3164 16.39 17.3382 16.5 17.3382C16.61 17.3382 16.719 17.3164 16.8205 17.2741C16.9221 17.2318 17.0142 17.1698 17.0917 17.0917C17.1698 17.0142 17.2318 16.922 17.2741 16.8205C17.3164 16.7189 17.3382 16.61 17.3382 16.5C17.3382 16.39 17.3164 16.2811 17.2741 16.1795C17.2318 16.078 17.1698 15.9858 17.0917 15.9083ZM14.45 14.45C14.212 14.6738 13.8976 14.7985 13.5709 14.7985C13.2441 14.7985 12.9297 14.6738 12.6917 14.45C12.4623 14.2165 12.3336 13.9023 12.3334 13.575C12.3316 13.4106 12.3632 13.2476 12.4263 13.0958C12.4893 12.944 12.5824 12.8065 12.7 12.6917C12.9222 12.4707 13.2201 12.3426 13.5334 12.3333C13.7018 12.323 13.8706 12.3476 14.0292 12.4055C14.1877 12.4635 14.3325 12.5536 14.4546 12.6702C14.5767 12.7868 14.6733 12.9273 14.7385 13.083C14.8037 13.2387 14.836 13.4062 14.8334 13.575C14.8265 13.9059 14.6886 14.2206 14.45 14.45ZM9.83335 9.00001H4.83335C4.61234 9.00001 4.40038 9.0878 4.2441 9.24408C4.08782 9.40036 4.00002 9.61232 4.00002 9.83334C4.00002 10.0544 4.08782 10.2663 4.2441 10.4226C4.40038 10.5789 4.61234 10.6667 4.83335 10.6667H9.83335C10.0544 10.6667 10.2663 10.5789 10.4226 10.4226C10.5789 10.2663 10.6667 10.0544 10.6667 9.83334C10.6667 9.61232 10.5789 9.40036 10.4226 9.24408C10.2663 9.0878 10.0544 9.00001 9.83335 9.00001ZM8.16669 14C8.3877 14 8.59966 13.9122 8.75594 13.7559C8.91222 13.5996 9.00002 13.3877 9.00002 13.1667C9.00002 12.9457 8.91222 12.7337 8.75594 12.5774C8.59966 12.4211 8.3877 12.3333 8.16669 12.3333H4.83335C4.61234 12.3333 4.40038 12.4211 4.2441 12.5774C4.08782 12.7337 4.00002 12.9457 4.00002 13.1667C4.00002 13.3877 4.08782 13.5996 4.2441 13.7559C4.40038 13.9122 4.61234 14 4.83335 14H8.16669Z" fill="#0C1427"/>
</svg>
