<svg width="18" height="18" viewBox="0 0 18 18" fill="none" xmlns="http://www.w3.org/2000/svg">
<path d="M17.0917 11.9833L13.325 8.225C13.4038 7.84115 13.4429 7.4502 13.4417 7.05834C13.4414 5.98388 13.1702 4.92684 12.6533 3.98491C12.1363 3.04298 11.3903 2.24657 10.4841 1.66929C9.57788 1.09201 8.54078 0.752493 7.46863 0.682121C6.39648 0.611749 5.32389 0.812794 4.35 1.26667C4.22662 1.32304 4.11885 1.40867 4.03608 1.51614C3.9533 1.6236 3.89801 1.74965 3.875 1.88334C3.85209 2.01533 3.86133 2.15089 3.90195 2.27855C3.94257 2.40621 4.01336 2.52219 4.10834 2.61667L7.73334 6.23334L6.23334 7.73334L2.61667 4.10834C2.52139 4.01484 2.40505 3.9456 2.27743 3.90644C2.14981 3.86729 2.01465 3.85936 1.88334 3.88334C1.75049 3.9055 1.62499 3.95953 1.51759 4.04081C1.41019 4.12208 1.32409 4.22818 1.26667 4.35C0.811273 5.32709 0.610403 6.40349 0.682745 7.47906C0.755087 8.55463 1.09829 9.59443 1.68043 10.5017C2.26257 11.409 3.06473 12.1544 4.01229 12.6684C4.95985 13.1824 6.02202 13.4484 7.1 13.4417C7.49186 13.4429 7.88281 13.4038 8.26667 13.325L12.025 17.0917C12.1025 17.1698 12.1946 17.2318 12.2962 17.2741C12.3977 17.3164 12.5067 17.3382 12.6167 17.3382C12.7267 17.3382 12.8356 17.3164 12.9372 17.2741C13.0387 17.2318 13.1309 17.1698 13.2083 17.0917C13.2864 17.0142 13.3484 16.922 13.3907 16.8205C13.4331 16.7189 13.4548 16.61 13.4548 16.5C13.4548 16.39 13.4331 16.2811 13.3907 16.1795C13.3484 16.078 13.2864 15.9858 13.2083 15.9083L9.125 11.825C9.02296 11.7236 8.89642 11.6504 8.75769 11.6124C8.61897 11.5745 8.47277 11.5731 8.33334 11.6083C7.93098 11.7161 7.51653 11.7721 7.1 11.775C6.47671 11.7805 5.85849 11.6626 5.28095 11.4282C4.70342 11.1937 4.17798 10.8473 3.73491 10.4088C3.29184 9.97042 2.9399 9.44866 2.69935 8.87363C2.4588 8.2986 2.33441 7.68165 2.33334 7.05834C2.33226 6.77919 2.35456 6.50043 2.4 6.225L5.66667 9.5C5.74414 9.57811 5.83631 9.64011 5.93785 9.68241C6.0394 9.72472 6.14833 9.7465 6.25834 9.7465C6.36835 9.7465 6.47727 9.72472 6.57882 9.68241C6.68037 9.64011 6.77253 9.57811 6.85 9.5L9.5 6.825C9.6502 6.66962 9.73416 6.46195 9.73416 6.24584C9.73416 6.02972 9.6502 5.82206 9.5 5.66667L6.25834 2.4C6.53382 2.35501 6.81253 2.33272 7.09167 2.33334C8.34337 2.33555 9.54305 2.83433 10.4274 3.7202C11.3117 4.60607 11.8083 5.80663 11.8083 7.05834C11.8054 7.47486 11.7494 7.88931 11.6417 8.29167C11.6064 8.43111 11.6078 8.5773 11.6458 8.71603C11.6837 8.85476 11.757 8.9813 11.8583 9.08334L15.9417 13.1667C16.0986 13.3236 16.3114 13.4117 16.5333 13.4117C16.7553 13.4117 16.9681 13.3236 17.125 13.1667C17.2819 13.0098 17.3701 12.7969 17.3701 12.575C17.3701 12.3531 17.2819 12.1403 17.125 11.9833H17.0917Z" fill="#0C1427"/>
</svg>
