<svg width="18" height="18" viewBox="0 0 18 18" fill="none" xmlns="http://www.w3.org/2000/svg">
<path d="M9.00002 3.99999C8.77901 3.99999 8.56705 4.08779 8.41077 4.24407C8.25449 4.40035 8.16669 4.61231 8.16669 4.83332V13.1667C8.16669 13.3877 8.25449 13.5996 8.41077 13.7559C8.56705 13.9122 8.77901 14 9.00002 14C9.22103 14 9.433 13.9122 9.58928 13.7559C9.74556 13.5996 9.83335 13.3877 9.83335 13.1667V4.83332C9.83335 4.61231 9.74556 4.40035 9.58928 4.24407C9.433 4.08779 9.22103 3.99999 9.00002 3.99999ZM4.83335 8.99999C4.61234 8.99999 4.40038 9.08779 4.2441 9.24407C4.08782 9.40035 4.00002 9.61231 4.00002 9.83332V13.1667C4.00002 13.3877 4.08782 13.5996 4.2441 13.7559C4.40038 13.9122 4.61234 14 4.83335 14C5.05437 14 5.26633 13.9122 5.42261 13.7559C5.57889 13.5996 5.66669 13.3877 5.66669 13.1667V9.83332C5.66669 9.61231 5.57889 9.40035 5.42261 9.24407C5.26633 9.08779 5.05437 8.99999 4.83335 8.99999ZM13.1667 7.33332C12.9457 7.33332 12.7337 7.42112 12.5774 7.5774C12.4212 7.73368 12.3334 7.94564 12.3334 8.16666V13.1667C12.3334 13.3877 12.4212 13.5996 12.5774 13.7559C12.7337 13.9122 12.9457 14 13.1667 14C13.3877 14 13.5997 13.9122 13.7559 13.7559C13.9122 13.5996 14 13.3877 14 13.1667V8.16666C14 7.94564 13.9122 7.73368 13.7559 7.5774C13.5997 7.42112 13.3877 7.33332 13.1667 7.33332ZM14.8334 0.666656H3.16669C2.50365 0.666656 1.86776 0.930049 1.39892 1.39889C0.930079 1.86773 0.666687 2.50362 0.666687 3.16666V14.8333C0.666687 15.4964 0.930079 16.1322 1.39892 16.6011C1.86776 17.0699 2.50365 17.3333 3.16669 17.3333H14.8334C15.4964 17.3333 16.1323 17.0699 16.6011 16.6011C17.07 16.1322 17.3334 15.4964 17.3334 14.8333V3.16666C17.3334 2.50362 17.07 1.86773 16.6011 1.39889C16.1323 0.930049 15.4964 0.666656 14.8334 0.666656ZM15.6667 14.8333C15.6667 15.0543 15.5789 15.2663 15.4226 15.4226C15.2663 15.5789 15.0544 15.6667 14.8334 15.6667H3.16669C2.94567 15.6667 2.73371 15.5789 2.57743 15.4226C2.42115 15.2663 2.33335 15.0543 2.33335 14.8333V3.16666C2.33335 2.94564 2.42115 2.73368 2.57743 2.5774C2.73371 2.42112 2.94567 2.33332 3.16669 2.33332H14.8334C15.0544 2.33332 15.2663 2.42112 15.4226 2.5774C15.5789 2.73368 15.6667 2.94564 15.6667 3.16666V14.8333Z" fill="#0C1427"/>
</svg>
