<svg width="20" height="16" viewBox="0 0 20 16" fill="none" xmlns="http://www.w3.org/2000/svg">
<path d="M10.25 8.18332C10.6946 7.79844 11.0513 7.32239 11.2957 6.78751C11.5401 6.25262 11.6667 5.67141 11.6666 5.08332C11.6666 3.97825 11.2277 2.91845 10.4463 2.13705C9.66486 1.35564 8.60505 0.916657 7.49998 0.916657C6.39491 0.916657 5.3351 1.35564 4.5537 2.13705C3.7723 2.91845 3.33331 3.97825 3.33331 5.08332C3.33331 5.67141 3.45981 6.25262 3.70425 6.78751C3.94869 7.32239 4.30533 7.79844 4.74998 8.18332C3.58343 8.71156 2.5937 9.5646 1.89913 10.6404C1.20456 11.7163 0.83454 12.9694 0.833313 14.25C0.833313 14.471 0.92111 14.683 1.07739 14.8392C1.23367 14.9955 1.44563 15.0833 1.66665 15.0833C1.88766 15.0833 2.09962 14.9955 2.2559 14.8392C2.41218 14.683 2.49998 14.471 2.49998 14.25C2.49998 12.9239 3.02676 11.6521 3.96445 10.7145C4.90213 9.77678 6.1739 9.24999 7.49998 9.24999C8.82606 9.24999 10.0978 9.77678 11.0355 10.7145C11.9732 11.6521 12.5 12.9239 12.5 14.25C12.5 14.471 12.5878 14.683 12.7441 14.8392C12.9003 14.9955 13.1123 15.0833 13.3333 15.0833C13.5543 15.0833 13.7663 14.9955 13.9226 14.8392C14.0788 14.683 14.1666 14.471 14.1666 14.25C14.1654 12.9694 13.7954 11.7163 13.1008 10.6404C12.4063 9.5646 11.4165 8.71156 10.25 8.18332ZM7.49998 7.58332C7.00553 7.58332 6.52218 7.4367 6.11105 7.162C5.69993 6.88729 5.3795 6.49685 5.19028 6.04003C5.00106 5.58322 4.95155 5.08055 5.04802 4.5956C5.14448 4.11065 5.38258 3.66519 5.73221 3.31556C6.08184 2.96593 6.5273 2.72782 7.01225 2.63136C7.49721 2.5349 7.99987 2.58441 8.45669 2.77362C8.9135 2.96284 9.30395 3.28328 9.57865 3.6944C9.85336 4.10552 9.99998 4.58887 9.99998 5.08332C9.99998 5.74637 9.73659 6.38225 9.26775 6.85109C8.79891 7.31993 8.16302 7.58332 7.49998 7.58332ZM15.6166 7.84999C16.15 7.24943 16.4983 6.50754 16.6198 5.71361C16.7413 4.91968 16.6308 4.10755 16.3015 3.37499C15.9721 2.64243 15.4381 2.02065 14.7637 1.58451C14.0893 1.14836 13.3032 0.916442 12.5 0.916657C12.279 0.916657 12.067 1.00445 11.9107 1.16073C11.7544 1.31701 11.6666 1.52898 11.6666 1.74999C11.6666 1.971 11.7544 2.18297 11.9107 2.33925C12.067 2.49553 12.279 2.58332 12.5 2.58332C13.163 2.58332 13.7989 2.84672 14.2677 3.31556C14.7366 3.7844 15 4.42028 15 5.08332C14.9988 5.52102 14.8827 5.95074 14.6634 6.32951C14.444 6.70827 14.129 7.02281 13.75 7.24166C13.6264 7.31292 13.5232 7.41471 13.4503 7.53727C13.3773 7.65984 13.3371 7.79907 13.3333 7.94166C13.3298 8.08313 13.3624 8.22315 13.428 8.34854C13.4936 8.47392 13.5901 8.58053 13.7083 8.65832L14.0333 8.87499L14.1416 8.93332C15.1461 9.40976 15.9936 10.1633 16.5841 11.1053C17.1747 12.0472 17.4838 13.1383 17.475 14.25C17.475 14.471 17.5628 14.683 17.7191 14.8392C17.8753 14.9955 18.0873 15.0833 18.3083 15.0833C18.5293 15.0833 18.7413 14.9955 18.8976 14.8392C19.0538 14.683 19.1416 14.471 19.1416 14.25C19.1485 12.9712 18.8282 11.7119 18.2112 10.5917C17.5942 9.47155 16.7011 8.52775 15.6166 7.84999Z" fill="#0C1427"/>
</svg>
