<svg width="14" height="18" viewBox="0 0 14 18" fill="none" xmlns="http://www.w3.org/2000/svg">
<path d="M9.49998 10.6667H4.49998C4.27897 10.6667 4.067 10.7545 3.91072 10.9107C3.75444 11.067 3.66665 11.279 3.66665 11.5C3.66665 11.721 3.75444 11.933 3.91072 12.0892C4.067 12.2455 4.27897 12.3333 4.49998 12.3333H9.49998C9.72099 12.3333 9.93295 12.2455 10.0892 12.0892C10.2455 11.933 10.3333 11.721 10.3333 11.5C10.3333 11.279 10.2455 11.067 10.0892 10.9107C9.93295 10.7545 9.72099 10.6667 9.49998 10.6667ZM9.49998 7.33332H6.16665C5.94563 7.33332 5.73367 7.42112 5.57739 7.5774C5.42111 7.73368 5.33331 7.94564 5.33331 8.16666C5.33331 8.38767 5.42111 8.59963 5.57739 8.75591C5.73367 8.91219 5.94563 8.99999 6.16665 8.99999H9.49998C9.72099 8.99999 9.93295 8.91219 10.0892 8.75591C10.2455 8.59963 10.3333 8.38767 10.3333 8.16666C10.3333 7.94564 10.2455 7.73368 10.0892 7.5774C9.93295 7.42112 9.72099 7.33332 9.49998 7.33332ZM11.1666 2.33332H10.1833C10.0114 1.84703 9.69325 1.42582 9.27253 1.12744C8.85181 0.829055 8.3491 0.668106 7.83331 0.666656H6.16665C5.65086 0.668106 5.14815 0.829055 4.72743 1.12744C4.3067 1.42582 3.98857 1.84703 3.81665 2.33332H2.83331C2.17027 2.33332 1.53439 2.59672 1.06555 3.06556C0.596705 3.5344 0.333313 4.17028 0.333313 4.83332V14.8333C0.333313 15.4964 0.596705 16.1322 1.06555 16.6011C1.53439 17.0699 2.17027 17.3333 2.83331 17.3333H11.1666C11.8297 17.3333 12.4656 17.0699 12.9344 16.6011C13.4033 16.1322 13.6666 15.4964 13.6666 14.8333V4.83332C13.6666 4.17028 13.4033 3.5344 12.9344 3.06556C12.4656 2.59672 11.8297 2.33332 11.1666 2.33332ZM5.33331 3.16666C5.33331 2.94564 5.42111 2.73368 5.57739 2.5774C5.73367 2.42112 5.94563 2.33332 6.16665 2.33332H7.83331C8.05433 2.33332 8.26629 2.42112 8.42257 2.5774C8.57885 2.73368 8.66665 2.94564 8.66665 3.16666V3.99999H5.33331V3.16666ZM12 14.8333C12 15.0543 11.9122 15.2663 11.7559 15.4226C11.5996 15.5789 11.3877 15.6667 11.1666 15.6667H2.83331C2.6123 15.6667 2.40034 15.5789 2.24406 15.4226C2.08778 15.2663 1.99998 15.0543 1.99998 14.8333V4.83332C1.99998 4.61231 2.08778 4.40035 2.24406 4.24407C2.40034 4.08779 2.6123 3.99999 2.83331 3.99999H3.66665V4.83332C3.66665 5.05434 3.75444 5.2663 3.91072 5.42258C4.067 5.57886 4.27897 5.66666 4.49998 5.66666H9.49998C9.72099 5.66666 9.93295 5.57886 10.0892 5.42258C10.2455 5.2663 10.3333 5.05434 10.3333 4.83332V3.99999H11.1666C11.3877 3.99999 11.5996 4.08779 11.7559 4.24407C11.9122 4.40035 12 4.61231 12 4.83332V14.8333Z" fill="#0C1427"/>
</svg>
