<svg width="18" height="16" viewBox="0 0 18 16" fill="none" xmlns="http://www.w3.org/2000/svg">
<path d="M10.0833 8.18334C10.528 7.79845 10.8846 7.32241 11.1291 6.78752C11.3735 6.25264 11.5 5.67143 11.5 5.08334C11.5 3.97827 11.061 2.91846 10.2796 2.13706C9.4982 1.35566 8.43839 0.916672 7.33332 0.916672C6.22825 0.916672 5.16845 1.35566 4.38705 2.13706C3.60564 2.91846 3.16666 3.97827 3.16666 5.08334C3.16665 5.67143 3.29316 6.25264 3.53759 6.78752C3.78203 7.32241 4.13868 7.79845 4.58332 8.18334C3.41677 8.71158 2.42704 9.56461 1.73247 10.6405C1.0379 11.7163 0.667883 12.9694 0.666656 14.25C0.666656 14.471 0.754454 14.683 0.910734 14.8393C1.06701 14.9955 1.27898 15.0833 1.49999 15.0833C1.721 15.0833 1.93297 14.9955 2.08925 14.8393C2.24553 14.683 2.33332 14.471 2.33332 14.25C2.33332 12.9239 2.86011 11.6522 3.79779 10.7145C4.73547 9.77679 6.00724 9.25001 7.33332 9.25001C8.65941 9.25001 9.93118 9.77679 10.8689 10.7145C11.8065 11.6522 12.3333 12.9239 12.3333 14.25C12.3333 14.471 12.4211 14.683 12.5774 14.8393C12.7337 14.9955 12.9456 15.0833 13.1667 15.0833C13.3877 15.0833 13.5996 14.9955 13.7559 14.8393C13.9122 14.683 14 14.471 14 14.25C13.9988 12.9694 13.6287 11.7163 12.9342 10.6405C12.2396 9.56461 11.2499 8.71158 10.0833 8.18334ZM7.33332 7.58334C6.83887 7.58334 6.35552 7.43672 5.9444 7.16201C5.53327 6.88731 5.21284 6.49686 5.02362 6.04005C4.83441 5.58323 4.7849 5.08057 4.88136 4.59561C4.97782 4.11066 5.21593 3.6652 5.56556 3.31557C5.91519 2.96594 6.36065 2.72784 6.8456 2.63138C7.33055 2.53491 7.83322 2.58442 8.29003 2.77364C8.74685 2.96286 9.13729 3.28329 9.412 3.69441C9.6867 4.10554 9.83332 4.58889 9.83332 5.08334C9.83332 5.74638 9.56993 6.38227 9.10109 6.85111C8.63225 7.31995 7.99636 7.58334 7.33332 7.58334ZM17.0917 5.60834C17.0142 5.53023 16.922 5.46824 16.8205 5.42593C16.7189 5.38362 16.61 5.36184 16.5 5.36184C16.39 5.36184 16.2811 5.38362 16.1795 5.42593C16.078 5.46824 15.9858 5.53023 15.9083 5.60834L14.2417 7.27501L13.725 6.75001C13.6475 6.6719 13.5554 6.6099 13.4538 6.5676C13.3523 6.52529 13.2433 6.50351 13.1333 6.50351C13.0233 6.50351 12.9144 6.52529 12.8128 6.5676C12.7113 6.6099 12.6191 6.6719 12.5417 6.75001C12.3864 6.90614 12.2993 7.11735 12.2993 7.33751C12.2993 7.55766 12.3864 7.76887 12.5417 7.92501L13.6583 9.04167C13.8145 9.19688 14.0257 9.284 14.2458 9.284C14.466 9.284 14.6772 9.19688 14.8333 9.04167L17.0583 6.81667C17.1425 6.74111 17.2103 6.64921 17.2578 6.54657C17.3053 6.44394 17.3314 6.33271 17.3345 6.21967C17.3376 6.10662 17.3177 5.99412 17.276 5.88903C17.2342 5.78393 17.1715 5.68843 17.0917 5.60834Z" fill="#0C1427"/>
</svg>
